<?xml version="1.0" standalone="no"?>
<!DOCTYPE svg PUBLIC "-//W3C//DTD SVG 20010904//EN"
 "http://www.w3.org/TR/2001/REC-SVG-20010904/DTD/svg10.dtd">
<svg version="1.0" xmlns="http://www.w3.org/2000/svg"
 fill="currentColor" viewBox="0 0 256.000000 256.000000"
 preserveAspectRatio="xMidYMid meet">

<g transform="translate(0.000000,256.000000) scale(0.100000,-0.100000)"
 stroke="none">
<path d="M1181 2524 c-103 -36 -194 -125 -233 -226 l-23 -62 -58 -13 c-75 -17
-120 -52 -153 -119 -24 -49 -26 -63 -22 -135 l5 -81 -51 -22 c-94 -42 -139
-118 -139 -236 0 -63 8 -99 51 -230 62 -189 68 -232 48 -330 -23 -113 -89
-230 -264 -475 -261 -364 -272 -381 -272 -432 0 -93 54 -143 155 -143 69 0
137 17 390 100 449 145 621 160 905 79 285 -81 429 -51 505 106 l22 48 81 1
c74 1 83 3 119 32 50 41 73 101 54 147 -25 62 -25 62 28 96 139 89 197 263
140 416 -26 71 -104 156 -172 189 -102 49 -230 41 -334 -20 l-43 -25 -33 23
c-26 19 -45 23 -104 23 -63 0 -76 -3 -115 -30 -23 -17 -56 -52 -73 -78 -24
-37 -34 -45 -50 -41 -11 3 -47 8 -81 11 -73 6 -121 -14 -177 -76 -45 -50 -69
-97 -118 -229 -47 -126 -65 -156 -127 -214 -87 -81 -171 -120 -393 -178 -78
-20 -109 -25 -106 -16 3 7 40 66 82 131 206 317 355 467 564 566 269 128 287
138 339 188 31 30 64 74 79 107 22 48 24 65 20 122 -4 37 -9 81 -12 98 -6 29
-4 33 36 55 24 13 57 43 73 67 25 36 30 53 31 102 0 67 -21 104 -75 132 -50
26 -51 29 -30 97 50 158 1 318 -125 413 -92 70 -243 97 -344 62z m164 -35 c33
-6 80 -21 106 -34 60 -31 133 -112 153 -172 20 -58 20 -174 1 -228 -28 -76
-19 -107 39 -137 53 -27 65 -44 66 -91 0 -63 -37 -116 -107 -151 -40 -20 -50
-54 -32 -109 22 -65 16 -139 -15 -191 -49 -83 -114 -127 -338 -226 -140 -63
-234 -126 -339 -230 -107 -107 -172 -193 -344 -455 -232 -355 -285 -416 -349
-399 -32 8 -64 43 -72 80 -7 35 25 84 273 432 222 311 273 420 273 587 0 67
-7 99 -50 227 -28 83 -54 178 -57 212 -10 109 30 181 124 222 60 27 69 46 59
125 -16 121 59 229 159 229 39 0 85 35 85 65 0 29 50 115 90 155 57 57 102 78
211 99 3 1 32 -4 64 -10z m944 -1305 c62 -33 96 -70 128 -140 65 -142 20 -284
-120 -377 -65 -44 -77 -70 -53 -118 24 -49 20 -77 -18 -115 -35 -35 -40 -37
-146 -38 l-65 -1 -27 -56 c-70 -147 -188 -171 -458 -94 -298 85 -442 72 -953
-86 -126 -39 -230 -69 -232 -67 -3 3 130 197 147 214 3 2 70 22 149 44 252 68
343 108 434 191 61 56 92 111 145 255 48 128 87 192 138 227 53 36 93 42 152
22 47 -15 53 -16 75 -1 14 9 31 29 39 45 38 73 136 122 202 101 18 -6 36 -16
40 -21 3 -6 17 -15 31 -20 21 -8 36 -4 77 17 119 63 222 69 315 18z"/>
<path d="M1315 2223 c-10 -70 -46 -236 -55 -252 -11 -21 -58 48 -73 108 -9 37
-16 51 -29 51 -14 0 -18 -8 -18 -37 0 -47 28 -108 70 -156 l32 -37 -27 -78
c-37 -106 -106 -262 -116 -262 -18 0 -69 77 -81 122 -14 57 -30 75 -47 54 -24
-29 26 -152 82 -204 l25 -24 -45 -74 c-42 -71 -133 -199 -196 -278 -28 -35
-29 -56 -2 -56 17 0 97 95 165 195 l49 73 38 -9 c71 -16 203 16 203 50 0 29
-9 30 -65 10 -57 -20 -130 -25 -139 -10 -3 4 24 64 59 133 l65 125 59 22 c33
12 81 36 108 54 48 34 117 121 110 141 -8 23 -36 17 -51 -12 -28 -55 -145
-141 -192 -142 -7 0 1 33 18 83 39 110 87 306 95 390 6 63 5 67 -15 67 -17 0
-22 -8 -27 -47z"/>
<path d="M1980 949 c-15 -28 -24 -64 -28 -111 l-5 -70 -51 -33 c-51 -32 -230
-125 -242 -125 -12 0 3 105 20 142 10 21 15 45 12 54 -20 52 -81 -63 -81 -154
l0 -62 -50 -19 c-82 -31 -184 -60 -275 -79 -72 -15 -85 -20 -85 -37 0 -17 6
-20 40 -17 22 2 91 16 154 32 l114 30 34 -35 c62 -64 168 -102 168 -61 0 13
-12 23 -39 33 -45 15 -108 61 -104 74 2 5 55 32 117 59 l115 49 60 -20 c109
-37 266 -23 266 23 0 19 -3 20 -42 12 -58 -12 -166 -9 -202 5 l-28 11 78 48
c87 52 201 136 278 204 36 32 48 49 43 61 -3 9 -11 17 -16 17 -5 0 -43 -28
-84 -63 -78 -67 -131 -107 -141 -107 -14 0 -4 74 15 111 37 73 -1 98 -41 28z"/>
</g>
</svg>
