<?xml version="1.0" standalone="no"?>
<!DOCTYPE svg PUBLIC "-//W3C//DTD SVG 20010904//EN"
 "http://www.w3.org/TR/2001/REC-SVG-20010904/DTD/svg10.dtd">
<svg version="1.0" xmlns="http://www.w3.org/2000/svg"
  viewBox="0 0 150.000000 150.000000" fill="currentColor"
 preserveAspectRatio="xMidYMid meet">

<g transform="translate(0.000000,150.000000) scale(0.100000,-0.100000)"
 stroke="none">
<path d="M965 1338 c-20 -23 -26 -40 -23 -64 4 -31 3 -32 -27 -27 -24 4 -39
-1 -62 -21 -38 -32 -45 -67 -23 -111 l18 -35 -67 -48 c-36 -27 -124 -88 -196
-137 -374 -252 -436 -320 -436 -469 0 -117 55 -209 160 -263 52 -27 74 -33
128 -33 92 0 138 17 199 72 63 58 193 228 329 428 54 80 102 149 106 154 4 5
20 -1 35 -13 15 -11 35 -21 46 -21 30 0 76 28 83 50 4 14 14 21 28 19 44 -3
58 1 82 26 27 26 33 72 14 107 -8 14 -8 23 0 31 6 6 11 28 11 49 0 29 -7 45
-26 63 -15 14 -33 25 -41 25 -11 0 -11 4 -2 21 6 12 9 40 6 62 -10 74 -91 125
-159 99 -21 -8 -28 -7 -28 2 0 7 -11 25 -25 40 -36 39 -94 37 -130 -6z m-132
-444 c-139 -151 -362 -363 -401 -382 -24 -12 -35 -13 -43 -5 -35 35 103 189
277 311 143 100 259 180 262 181 2 1 -40 -47 -95 -105z m51 -179 c-152 -227
-229 -323 -290 -363 -52 -35 -80 -38 -98 -10 -8 14 -6 26 9 55 24 43 481 511
490 501 4 -4 -46 -86 -111 -183z"/>
</g>
</svg>
